<svg xmlns="http://www.w3.org/2000/svg" xmlns:xlink="http://www.w3.org/1999/xlink" xmlns:lucid="lucid" width="1380" height="847.4"><g transform="translate(-220 -32.6)" lucid:page-tab-id="0_0"><path d="M0 0h1870.4v1323.2H0z" fill="#fff"/><path d="M240 140h780v720H240z" stroke="#232f3e" stroke-width="2" fill="#fff" fill-opacity="0"/><path d="M240 140h56v56h-56v-56z" stroke="#fff" stroke-opacity="0" fill="#232f3e"/><path d="M280.88 181.22h-25c-4.13.05-7.57-3.1-7.9-7.2v-.64c-.15-3.4 1.97-6.38 5.25-7.36v-.66c.12-4.22 2.44-7.75 6.24-9.57 4.12-1.86 8.73-.96 11.8 2.3 1.1 1.1 1.85 2.2 2.45 3.6 1.2-1 2.72-1.32 4.24-.9 2.24.8 3.68 2.74 3.76 5.1 3.68.65 6.32 3.8 6.28 7.56 0 7.07-7.04 7.73-7.12 7.76zm-26.7-13.88c-2.83.6-4.75 3.14-4.6 6.04v.53c.3 3.33 3.1 5.84 6.4 5.76h24.98c3.04-.3 5.4-2.64 5.68-5.7.28-3.43-2.24-6.5-5.68-6.78-.44-.05-.72-.44-.64-.87.08-1.83-1-3.44-2.72-4.13-1.32-.37-2.64.13-3.44 1.24-.2.25-.44.38-.76.33-.28-.05-.48-.24-.6-.5-.6-1.6-1.4-2.85-2.6-4.04-2.68-2.8-6.6-3.6-10.13-2-3.24 1.6-5.2 4.63-5.32 8.24-.04.4-.04.74 0 1.14.04.4-.2.76-.6.84z" stroke="#fff" stroke-opacity="0" fill="#fff"/><use xlink:href="#a" transform="matrix(1,0,0,1,311,160) translate(0 14.4)"/><use xlink:href="#b" transform="matrix(1,0,0,1,311,160) translate(58.95 14.4)"/><use xlink:href="#c" transform="matrix(1,0,0,1,311,160) translate(116.85000000000001 14.4)"/><path d="M1468.2 540.12h18v13.94h-18v-13.94zM1381.2 415h190.4v125.12h-190.4V415z" fill="#29aae1"/><path d="M1389.8 422.65h173.8V534.5h-173.8V422.66z" fill="#fff" fill-opacity=".98"/><path d="M1388.6 554.9h173.6l-8.6 29.93H1380l8.6-29.92z" fill="#29aae1"/><path d="M1387.6 553.9h177.6l14.8 30.93h-177.6l-14.8-30.94z" fill="#29aae1"/><path d="M1447.8 576.84h63.2v6.3h-63.2v-6.3zM1413 558.82h4.6v3.9h-4.6v-3.9zM1421.2 559h4.8v3.9h-4.8V559zM1431.8 566.13h4.8v3.9h-4.8v-3.9zM1430.2 558.48h4.6v4.08h-4.6v-4.08zM1438.2 558.82h4.8v3.9h-4.8v-3.9zM1446 558.48h4.8v4.08h-4.8v-4.08zM1495 559.16h4.8v4.08h-4.8v-4.08zM1502.2 559.16h4.8v4.08h-4.8v-4.08zM1509 559.16h4.8v4.08h-4.8v-4.08zM1517.2 559.16h4.6v4.08h-4.6v-4.08zM1524.6 559.16h4.6v4.08h-4.6v-4.08zM1515.8 565.8h4.6v3.9h-4.6v-3.9zM1533 559.16h4.8v4.08h-4.8v-4.08zM1440.8 565.96h4.6v3.9h-4.6v-3.9zM1449.8 565.96h4.6v3.9h-4.6v-3.9zM1508.4 565.62h4v3.9h-4v-3.9zM1500.2 565.62h4.8v3.9h-4.8v-3.9zM1454.8 558.65h4.8v4.08h-4.8v-4.08zM1463.8 558.82h4.6v4.08h-4.6v-4.08zM1472 558.65h4.6v4.08h-4.6v-4.08zM1481 558.65h4.6v4.08h-4.6v-4.08zM1488.4 558.82h4.6v4.08h-4.6v-4.08zM1457.8 565.8h4.8v3.9h-4.8v-3.9zM1466.8 565.8h4.6v3.9h-4.6v-3.9zM1475 565.96h4.8v3.9h-4.8v-3.9zM1483.2 565.96h4.6v3.9h-4.6v-3.9zM1491.6 565.62h4.6v3.9h-4.6v-3.9z" fill="#fff"/><path d="M1380.2 584.83l199.8-.68-14.2-30.26-177 .33-8.6 30.6z" fill="none"/><path d="M1467.2 540.12h19.6V542h-19.6v-1.88zM1468 551.68h18.6v2.2H1468v-2.2z" fill="#fff"/><use xlink:href="#d" transform="matrix(1,0,0,1,1350,585) translate(68.6 18.6)"/><use xlink:href="#e" transform="matrix(1,0,0,1,1350,585) translate(129.55 18.6)"/><path d="M1022 500h340.7" stroke="#000" stroke-width="2" fill="none"/><path d="M1022.03 501H1021v-2h1.03z"/><path d="M1377.96 500l-14.26 4.64v-9.28z" stroke="#000" stroke-width="2"/><path d="M1080 415h240v60h-240z" fill="none"/><use xlink:href="#f" transform="matrix(1,0,0,1,1085,420) translate(52.525 28.6)"/><use xlink:href="#g" transform="matrix(1,0,0,1,1085,420) translate(116.525 28.6)"/><path d="M339.2 294.97c1.85-1.84 3.6-3.67 5.45-5.53.56-.63 1.28-1.3 1.84-1.95-.5-.73-1.3-1.28-2-1.57-1.37-.64-2.73-.43-4 .45-1.7 1.16-2.4 3-2.4 5.28.07.9.23 1.77.63 2.54l.48.77m2.1 1.74c.87.38 1.9.33 2.8.13.47-.23 1.67-.84 2.07-.75h.08l.08.04c.24.16.48.37.64.7.32.76.16 1.5-.48 1.93l-.17.16c-2.32 1.6-4.8 1.37-7.04-.1-1.13-.7-1.92-1.77-2.56-3.04l-.16-.3c-1.44-3.05-1.28-6.25.4-9.15.56-.98 1.27-1.78 2.15-2.37l.4-.22c2.16-1.5 4.48-1.4 6.72-.08 1.12.7 2.16 1.74 2.8 3.12l.08.25c.56 1-.08 1.87-.72 2.46-.8.7-1.5 1.54-2.23 2.27-1.68 1.65-3.28 3.33-4.88 4.98zm17.26-13.86h.24c.72 0 1.2.6 1.2 1.46 0 1.2-.96 1.5-1.76 1.5-1.12 0-2.16.78-2.88 1.67-.96 1.1-1.36 2.5-1.36 4.05v6.98c0 .82-.4 1.45-1.12 1.45h-.23c-.64 0-1.12-.63-1.12-1.45v-7.38c0-2.84 1.2-5.17 3.1-6.78 1.2-.97 2.5-1.5 3.93-1.5zm-30.22 4.97c.96-1.1 1.84-2.24 2.8-3.35.32-.3 1.28-1.6 1.68-1.6h.48v.02c.56.13.96.54.96 1.24v.3c0 .48-.4 1.05-.72 1.4-.56.7-1.12 1.37-1.68 2.05l-2.96 3.54c1.28 1.5 2.56 3 3.76 4.52.4.43.72.86 1.04 1.27.16.15.32.33.4.56.16.18.16.4.16.63v.38c-.08.65-.48 1.17-1.04 1.17h-.24c-.4 0-.88-.54-1.12-.83-.56-.64-1.12-1.32-1.68-1.98l-1.84-2.17v3.5c0 .78-.4 1.44-1.12 1.44h-.16c-.72 0-1.12-.65-1.12-1.44v-19.63c0-.8.4-1.42 1.12-1.42h.16c.72 0 1.12.64 1.12 1.43v8.98zm-7.9-1.94c-.33-.2-1.05-.27-1.45-.3-2-.1-3.45 1.27-4.33 3.4-.32.73-.4 1.52-.4 2.34 0 2.47 1.04 4.2 2.88 5.26.72.38 1.6.45 2.32.45.64 0 1.6-.47 2.16-.78l.08-.07h.5v.02c.55.14 1.03.54 1.03 1.25v.3c0 1.76-2.72 2.14-3.76 2.23-3.68.3-6.4-2.08-7.44-6.2-.16-.7-.24-1.43-.24-2.18V291c0-3.12 1.35-5.62 3.6-7.2 1.03-.75 2.15-1.14 3.43-1.14h.48c1.3 0 2.5.46 3.53 1.32l.08.07.1.1c.07.24.23.5.23.78v.27c0 .75-.48 1.13-1.04 1.27l-.1.02h-.15c-.32-.03-1.12-.46-1.52-.64zm-22.08 5.48c0 2.2.88 3.8 2.48 4.97.72.53 1.52.78 2.4.78 1.76 0 3.12-1.1 4.08-2.95.48-.86.64-1.84.64-2.83 0-2.06-.8-3.6-2.24-4.74-.8-.63-1.6-.93-2.56-.93-2 0-3.52 1.23-4.4 3.38-.24.76-.4 1.53-.4 2.34zm4.56-8.6h.32c2.8 0 4.96 1.62 6.3 4.55.57 1.14.8 2.4.8 3.75v.6c0 3.12-1.27 5.6-3.5 7.2-1.04.72-2.24 1.1-3.44 1.1h-.48c-2.64 0-4.72-1.54-6.08-4.23-.56-1.25-.88-2.63-.88-4.08v-.6c0-3.12 1.28-5.6 3.52-7.2 1.04-.75 2.24-1.1 3.44-1.1zm-20.47 8.6c0 2.27.96 3.97 2.64 5.06.63.43 1.35.68 2.15.68 1.84 0 3.2-1.05 4.16-2.93.5-.88.65-1.83.65-2.85 0-1.97-.72-3.5-2.08-4.65-.8-.68-1.68-1.02-2.72-1.02-2 0-3.44 1.23-4.32 3.38-.32.76-.48 1.53-.48 2.34zm9.6-6.46v-6.1c0-.8.48-1.44 1.12-1.44h.24c.72 0 1.12.63 1.12 1.45v12.84c0 3.13-1.27 5.62-3.6 7.2-1.03.73-2.15 1.1-3.43 1.1h-.5c-2.63 0-4.7-1.53-6-4.22-.63-1.25-.95-2.63-.95-4.08v-.6c0-3.12 1.28-5.6 3.6-7.2 1.04-.75 2.16-1.1 3.36-1.1h.5c1.83 0 3.35.8 4.55 2.14zM326.12 237.07h7.22v8.7h3.57c1.7 0 3.44-.33 4.98-.98.77-.33 1.68-.76 2.45-1.3-1.05-1.57-1.54-3.57-1.68-5.5-.2-2.7.2-6.17 1.75-8.22l.77-1.03.84.8c2.32 2.17 4.2 5.2 4.5 8.65 2.72-.97 5.94-.7 8.32.92l.98.7-.5 1.2c-2.02 4.7-6.3 6.15-10.42 5.88-6.16 18.42-19.68 27.1-36 27.1-8.47 0-16.24-3.77-20.65-12.68l-.07-.16-.63-1.57c-1.47-3.95-1.96-8.22-1.68-12.54l.14-1.3h6.08v-8.7h7.14v-8.53h14.36V220h8.54v17.07z" stroke="#000" stroke-opacity="0" fill="#394d54"/><path d="M349.35 240.3c.47-4.46-2.36-7.93-4.04-9.6-2 2.76-2.34 9.92.82 12.98-1.75 1.84-5.45 3.52-9.2 3.52h-45.88c-.34 4.7.33 9 1.95 12.7l.46 1.13c.34.67.74 1.3 1.14 1.92 1.9.17 3.57.2 5.18.17 3.16-.08 5.65-.54 7.6-1.34.27-.08.6.08.74.42.07.33-.07.7-.34.84-.26.12-.53.2-.8.3-1.55.5-3.16.87-5.32 1.04h-.13c-.07 0-.13 0-.2.04-.8.04-1.75.04-2.62.04-1 0-2 0-3.1-.08l-.06.04c3.84 5.1 9.82 8.17 17.3 8.17 15.86 0 29.3-8.4 35.23-27.16 4.24.5 8.34-.8 10.16-5.07-2.96-2.05-6.73-1.38-8.88-.08z" stroke="#000" stroke-opacity="0" fill="#00aada"/><path d="M349.34 240.27c.44-4.43-2.35-7.92-4.03-9.58-2 2.73-2.33 9.93.8 12.96-1.73 1.87-5.42 3.53-9.16 3.53h-43.17c-.17 7.16 2.07 12.64 6.03 15.92 3.13-.08 5.64-.54 7.6-1.34.28-.1.6.08.67.44.1.32 0 .68-.34.82-.22.1-.5.18-.78.3-1.5.5-3.3.9-5.42 1.07l-.05-.06c5.4 3.32 13.23 3.28 22.22-.83 10.06-4.56 19.38-13.35 25.9-23.37-.1.04-.15.1-.26.14z" stroke="#000" stroke-opacity="0" fill="#24b8eb"/><path d="M291.15 252.9c.27 2.5.92 4.85 1.84 7l.47 1.12c.33.67.7 1.32 1.08 1.93 1.9.16 3.67.2 5.23.16 3.13-.07 5.66-.5 7.6-1.3.28-.13.6.05.7.4.1.34-.05.7-.32.83-.27.12-.54.22-.8.3-1.52.53-3.3.88-5.4 1.04-.05.02-.2.02-.27.02-.82.05-1.73.07-2.65.07-.97 0-2-.02-3.13-.08 3.83 5.1 9.87 8.2 17.37 8.2 13.52 0 25.33-6.16 32.18-19.7h-53.93z" stroke="#000" stroke-opacity="0" fill="#008bb8"/><path d="M294.2 252.9c.8 4.4 2.77 7.85 5.6 10.2 3.1-.06 5.64-.5 7.57-1.3.3-.12.63.06.72.4.07.34-.06.7-.33.84l-.8.3c-1.53.52-3.37.9-5.47 1.04 5.42 3.3 13.22 3.24 22.18-.86 5.42-2.48 10.62-6.17 15.32-10.63h-44.8z" stroke="#000" stroke-opacity="0" fill="#039bc6"/><path d="M302.5 239.1h.48v6.15h-.5v-6.16zm-.96 0h.5v6.15h-.5v-6.16zm-.93 0h.52v6.15h-.5v-6.16zm-.93 0h.5v6.15h-.5v-6.16zm-.95 0h.52v6.15h-.52v-6.16zm-.9 0h.48v6.15h-.5v-6.16zm-.53-.62h6.2v7.4h-6.2v-7.4zM309.64 230.56h.5v6.16h-.5v-6.16zm-.94 0h.5v6.16h-.5v-6.16zm-.94 0h.5v6.16h-.5v-6.16zm-.94 0h.5v6.16h-.5v-6.16zm-.94 0h.5v6.16h-.5v-6.16zm-.92 0h.5v6.16h-.5v-6.16zm-.52-.6h6.2v7.38h-6.2v-7.4z" stroke="#000" stroke-opacity="0" fill="#00acd3"/><path d="M309.64 239.1h.5v6.15h-.5v-6.16zm-.94 0h.5v6.15h-.5v-6.16zm-.94 0h.5v6.15h-.5v-6.16zm-.94 0h.5v6.15h-.5v-6.16zm-.94 0h.5v6.15h-.5v-6.16zm-.92 0h.5v6.15h-.5v-6.16zm-.52-.62h6.2v7.4h-6.2v-7.4z" stroke="#000" stroke-opacity="0" fill="#20c2ef"/><path d="M316.8 239.1h.5v6.15h-.5v-6.16zm-.95 0h.5v6.15h-.5v-6.16zm-.93 0h.5v6.15h-.5v-6.16zm-.94 0h.5v6.15h-.5v-6.16zm-.94 0h.5v6.15h-.5v-6.16zm-.93 0h.5v6.15h-.5v-6.16zm-.5-.62h6.2v7.4h-6.2v-7.4z" stroke="#000" stroke-opacity="0" fill="#00acd3"/><path d="M316.8 230.56h.5v6.16h-.5v-6.16zm-.95 0h.5v6.16h-.5v-6.16zm-.93 0h.5v6.16h-.5v-6.16zm-.94 0h.5v6.16h-.5v-6.16zm-.94 0h.5v6.16h-.5v-6.16zm-.93 0h.5v6.16h-.5v-6.16zm-.5-.6h6.2v7.38h-6.2v-7.4zM323.95 239.1h.5v6.15h-.5v-6.16zm-.94 0h.52v6.15h-.5v-6.16zm-.93 0h.5v6.15h-.5v-6.16zm-.94 0h.5v6.15h-.5v-6.16zm-.94 0h.5v6.15h-.5v-6.16zm-.93 0h.5v6.15h-.5v-6.16zm-.52-.62h6.2v7.4h-6.2v-7.4z" stroke="#000" stroke-opacity="0" fill="#20c2ef"/><path d="M323.95 230.56h.5v6.16h-.5v-6.16zm-.94 0h.52v6.16h-.5v-6.16zm-.93 0h.5v6.16h-.5v-6.16zm-.94 0h.5v6.16h-.5v-6.16zm-.94 0h.5v6.16h-.5v-6.16zm-.93 0h.5v6.16h-.5v-6.16zm-.52-.6h6.2v7.38h-6.2v-7.4z" stroke="#000" stroke-opacity="0" fill="#00acd3"/><path d="M323.95 222.03h.5v6.17h-.5v-6.17zm-.94 0h.52v6.17h-.5v-6.17zm-.93 0h.5v6.17h-.5v-6.17zm-.94 0h.5v6.17h-.5v-6.17zm-.94 0h.5v6.17h-.5v-6.17zm-.93 0h.5v6.17h-.5v-6.17zm-.52-.6h6.2v7.38h-6.2v-7.38z" stroke="#000" stroke-opacity="0" fill="#20c2ef"/><path d="M331.1 239.1h.5v6.15h-.5v-6.16zm-.94 0h.5v6.15h-.5v-6.16zm-.93 0h.5v6.15h-.5v-6.16zm-.95 0h.5v6.15h-.5v-6.16zm-.93 0h.5v6.15h-.5v-6.16zm-.93 0h.5v6.15h-.5v-6.16zm-.5-.62h6.2v7.4h-6.2v-7.4z" stroke="#000" stroke-opacity="0" fill="#00acd3"/><path d="M310.26 257.85c.94 0 1.7.9 1.7 2.04 0 1.12-.76 2.03-1.7 2.03-.95 0-1.7-.9-1.7-2.04 0-1.14.75-2.05 1.7-2.05" stroke="#000" stroke-opacity="0" fill="#d4edf1"/><path d="M310.26 258.43c.15 0 .3.03.44.1-.15.1-.25.3-.25.52 0 .33.22.6.5.6.2 0 .36-.14.44-.32.05.17.08.36.08.56 0 .8-.55 1.45-1.22 1.45-.68 0-1.23-.65-1.23-1.46 0-.82.55-1.47 1.23-1.47M280 253.62H359.58c-1.75-.52-5.5-1.23-4.86-3.93-3.18 4.33-10.74 3.03-12.65.9-2.15 3.7-14.56 2.28-15.44-.6-2.7 3.75-10.98 3.75-13.68 0-.88 2.88-13.3 4.3-15.44.6-1.9 2.13-9.46 3.43-12.65-.9.64 2.7-3.1 3.4-4.85 3.92" stroke="#000" stroke-opacity="0" fill="#394d54"/><path d="M314.8 272.54c-4.24-2.4-6.55-5.65-7.86-9.2-1.57.53-3.46.87-5.66 1.02-.82.06-1.7.08-2.6.08-1.06 0-2.17-.03-3.34-.1 3.9 4.62 8.66 8.18 17.52 8.25.64 0 1.3-.02 1.94-.06z" stroke="#000" stroke-opacity="0" fill="#bfdbe0"/><path d="M308.52 266.62c-.58-.95-1.15-2.14-1.57-3.3-1.57.55-3.46.9-5.66 1.04 1.5.98 3.66 1.88 7.22 2.26z" stroke="#000" stroke-opacity="0" fill="#d4edf1"/><path d="M260 200h440v640H260z" fill="#fff" fill-opacity="0"/><path d="M271.8 200h7.84m7.86 0h7.86m7.85 0h7.87m7.86 0h7.86m7.84 0h7.86m7.86 0h7.85m7.87 0h7.86m7.86 0h7.84m7.86 0h7.86m7.85 0h7.87m7.86 0h7.86m7.84 0h7.86m7.86 0h7.85m7.87 0h7.86m7.86 0h7.84m7.86 0h7.86m7.85 0h7.87m7.86 0h7.86m7.84 0h7.86m7.86 0h7.85m7.87 0h7.86m7.86 0h7.84m7.86 0h7.86m7.85 0h7.87m7.86 0h7.86m7.84 0h7.86m7.86 0h7.85m7.87 0H700v4m0 8v8m0 8v8m0 8v8m0 8v8m0 8v8m0 8v8m0 8v8m0 8v8m0 8v8m0 8v8m0 8v8m0 8v8m0 8v8m0 8v8m0 8v8m0 8v8m0 8v8m0 8v8m0 8v8m0 8v8m0 8v8m0 8v8m0 8v8m0 8v8m0 8v8m0 8v8m0 8v8m0 8v8m0 8v8m0 8v8m0 8v8m0 8v8m0 8v8m0 8v8m0 8v8m0 8v8m0 8v8m0 8v8m0 8v8m0 8v4h-3.93m-7.86 0h-7.84m-7.86 0h-7.86m-7.85 0h-7.87m-7.86 0h-7.86m-7.84 0h-7.86m-7.86 0h-7.85m-7.87 0h-7.86m-7.86 0h-7.84m-7.86 0h-7.86m-7.85 0h-7.87m-7.86 0h-7.86m-7.84 0h-7.86m-7.86 0h-7.85m-7.87 0h-7.86m-7.86 0h-7.84m-7.86 0h-7.86m-7.85 0h-7.87m-7.86 0h-7.86m-7.84 0h-7.86m-7.86 0h-7.85m-7.87 0h-7.86m-7.86 0h-7.84m-7.86 0h-7.86m-7.85 0h-7.87m-7.86 0h-7.86m-7.84 0h-7.86m-7.86 0h-7.85m-7.87 0H260v-4m0-8v-8m0-8v-8m0-8v-8m0-8v-8m0-8v-8m0-8v-8m0-8v-8m0-8v-8m0-8v-8m0-8v-8m0-8v-8m0-8v-8m0-8v-8m0-8v-8m0-8v-8m0-8v-8m0-8v-8m0-8v-8m0-8v-8m0-8v-8m0-8v-8m0-8v-8m0-8v-8m0-8v-8m0-8v-8m0-8v-8m0-8v-8m0-8v-8m0-8v-8m0-8v-8m0-8v-8m0-8v-8m0-8v-8m0-8v-8m0-8v-8m0-8v-8m0-8v-8m0-8v-8m0-8v-8m0-8v-4h3.93" stroke="#147eba" stroke-width="2" fill="none"/><use xlink:href="#h" transform="matrix(1,0,0,1,260,220) translate(132.6 14.4)"/><use xlink:href="#i" transform="matrix(1,0,0,1,260,220) translate(250.5 14.4)"/><g filter="url(#j)"><path d="M281.76 341.76h96.48v96.48h-96.48z" stroke="#fff" stroke-opacity="0" fill="#3b48cc"/><path d="M376.5 343.5v93h-93v-93h93m3.5-3.5H280v100h100V340z" stroke="#fff" stroke-opacity="0" fill="#fff"/><path d="M330.58 360c-11.78 0-20.73 3.8-20.73 8.8v43.5c0 5.08 8.95 8.88 20.73 8.88 11.78 0 20.74-3.8 20.74-8.8v-43.5c0-5.1-8.92-8.88-20.74-8.88zm0 2.32c10.83 0 18.37 3.43 18.37 6.5 0 3.05-7.54 6.47-18.37 6.47-10.82 0-18.37-3.37-18.37-6.43 0-3.06 7.56-6.55 18.38-6.55zm0 56.53c-10.82 0-18.37-3.42-18.37-6.48v-9.18c3.4 2.8 10.17 4.64 18.38 4.64 8.26 0 14.97-1.84 18.37-4.65v9.17c0 3.06-7.54 6.48-18.37 6.48zm0-13.4c-10.82 0-18.37-3.36-18.37-6.42v-10.77c3.4 2.76 10.17 4.6 18.38 4.6 8.26 0 14.97-1.84 18.37-4.6v10.77c0 3.06-7.54 6.42-18.37 6.42zm0-14.98c-10.82 0-18.37-3.37-18.37-6.43v-11.07c3.4 2.8 10.17 4.65 18.38 4.65 8.26 0 14.97-1.84 18.37-4.65v11c0 3.07-7.54 6.5-18.37 6.5z" stroke="#fff" stroke-opacity="0" fill="#fff"/><use xlink:href="#k" transform="matrix(1,0,0,1,250,449) translate(46.099999999999994 14.4)"/></g><path d="M859.66 223.17c-1.14.1-2.05.34-2.96.8l-39.44 19.43c-2.16 1.02-3.64 2.84-4.1 5.23l-9.77 43.76c-.47 2.04-.13 4.08 1 5.9.13.23.24.34.47.57l27.28 35c1.48 1.94 3.52 2.97 5.9 2.97h43.9c2.38 0 4.42-1.03 5.9-2.96l27.28-35c1.48-1.94 2.05-4.2 1.48-6.6l-9.77-43.65c-.45-2.4-1.93-4.2-4.1-5.23l-39.43-19.44c-1.25-.57-2.4-.9-3.64-.8z" stroke="#000" stroke-opacity="0" stroke-width="3.83" fill="#326ce5"/><path d="M859.64 220c-1.2.12-2.16.36-3.12.84l-41.64 20.52c-2.28 1.08-3.84 3-4.32 5.52l-10.32 46.2c-.48 2.16-.12 4.32 1.08 6.24.12.24.24.36.48.6l28.8 36.96c1.56 2.04 3.72 3.12 6.24 3.12h46.32c2.52 0 4.68-1.08 6.24-3.12l28.8-36.96c1.56-2.04 2.16-4.44 1.56-6.84l-10.32-46.2c-.48-2.52-2.04-4.44-4.32-5.52l-41.64-20.52c-1.32-.6-2.52-.96-3.84-.84zm0 3.24c1.32-.12 2.4.12 3.6.72l39.6 19.44c2.04 1.08 3.48 2.88 4.08 5.28l9.72 43.68c.48 2.4 0 4.56-1.44 6.48l-27.36 35.04c-1.44 1.92-3.48 3-5.88 3h-43.92c-2.4 0-4.44-1.08-5.88-3l-27.36-35.04c-.12-.12-.24-.36-.36-.6-1.2-1.8-1.56-3.72-1.08-5.88l9.72-43.68c.6-2.4 1.92-4.2 4.08-5.28l39.6-19.44c.96-.48 1.8-.72 2.88-.84z" stroke="#000" stroke-opacity="0" stroke-width="3.83" fill="#fff"/><path d="M829.2 269.57c0 4.26 13.8 7.7 30.8 7.7s30.8-3.44 30.8-7.7v20.86c0 4.26-13.8 7.7-30.8 7.7s-30.8-3.44-30.8-7.7z" stroke="#000" stroke-opacity="0" stroke-width="3.77" fill="#fff"/><path d="M829.2 269.57c0-4.26 13.8-7.7 30.8-7.7s30.8 3.44 30.8 7.7-13.8 7.7-30.8 7.7-30.8-3.44-30.8-7.7z" stroke="#000" stroke-opacity="0" stroke-width="3.77" fill="#fff"/><path d="M860 260.96c-8.55 0-16.28.83-21.98 2.28-2.85.7-5.13 1.52-6.84 2.55-1.64.98-2.85 2.2-2.85 3.76v20.88c0 1.56 1.2 2.78 2.85 3.77 1.7 1.03 4 1.87 6.84 2.56 5.7 1.45 13.43 2.28 21.98 2.28s16.28-.83 21.98-2.28c2.85-.7 5.13-1.53 6.84-2.55 1.64-.98 2.85-2.2 2.85-3.76v-20.88c0-1.56-1.2-2.78-2.85-3.77-1.7-1.04-4-1.87-6.84-2.56-5.7-1.45-13.43-2.28-21.98-2.28zm0 1.8c8.42 0 16.1.86 21.53 2.23 2.8.68 4.94 1.52 6.4 2.35 1.46.84 1.96 1.64 1.96 2.2 0 .58-.5 1.38-1.97 2.22-1.46.88-3.6 1.68-6.4 2.36-5.44 1.38-13.1 2.25-21.53 2.25-12.16 0-22.74-1.86-27.42-4.3-.9-.46-1.52-.95-1.97-1.4-.37-.43-.5-.8-.5-1.12 0-.57.5-1.37 1.97-2.2 1.46-.84 3.6-1.68 6.4-2.37 5.44-1.38 13.1-2.25 21.53-2.25zm29.9 9.13v18.54c0 .57-.5 1.37-1.97 2.2-1.46.84-3.6 1.68-6.4 2.37-5.44 1.38-13.1 2.25-21.53 2.25-8.42 0-16.1-.87-21.53-2.24-2.8-.68-4.94-1.52-6.4-2.36-1.46-.83-1.96-1.63-1.96-2.2v-17.98c.5.42 1.02.87 1.72 1.26 5.25 2.74 15.83 4.5 28.18 4.5 8.55 0 16.28-.9 21.98-2.33 2.85-.7 5.13-1.54 6.84-2.53.63-.38.95-1 1.07-1.48z" stroke="#000" stroke-opacity="0" stroke-width="3.77" fill="#326ce5"/><use xlink:href="#l" transform="matrix(1,0,0,1,770,349) translate(20.099999999999994 14.4)"/><path d="M381 390h210.58V280h193.08" stroke="#000" stroke-width="2" fill="none"/><path d="M381.03 391H380v-2h1.03z"/><path d="M799.93 280l-14.27 4.64v-9.28z" stroke="#000" stroke-width="2"/><path d="M352.18 672.18h-64.36v-64.36h64.36zm-61.02-3.34h57.68v-57.68h-57.68z" stroke="#fff" stroke-opacity="0" fill="#d86613"/><path d="M297.02 600h3.33v9.48h-3.33V600zM307.47 600h3.33v9.48h-3.33V600zM317.93 600h3.34v9.48h-3.34V600zM328.4 600h3.33v9.48h-3.33V600zM338.87 600h3.33v9.48h-3.33V600zM297.02 670.52h3.33V680h-3.33v-9.48zM307.47 670.52h3.33V680h-3.33v-9.48zM317.93 670.52h3.34V680h-3.34v-9.48zM328.4 670.52h3.33V680h-3.33v-9.48zM338.87 670.52h3.33V680h-3.33v-9.48zM350.52 617.42H360v3.33h-9.48v-3.33zM350.52 627.87H360v3.33h-9.48v-3.33zM350.52 638.33H360v3.34h-9.48v-3.34zM350.52 648.8H360v3.33h-9.48v-3.33zM350.52 659.25H360v3.33h-9.48v-3.33zM280 617.42h9.48v3.33H280v-3.33zM280 627.87h9.48v3.33H280v-3.33zM280 638.33h9.48v3.34H280v-3.34zM280 648.8h9.48v3.33H280v-3.33zM280 659.25h9.48v3.33H280v-3.33z" stroke="#fff" stroke-opacity="0" fill="#d86613"/><use xlink:href="#m" transform="matrix(1,0,0,1,250,689) translate(9.125 14.4)"/><use xlink:href="#n" transform="matrix(1,0,0,1,250,689) translate(40.075 14.4)"/><use xlink:href="#o" transform="matrix(1,0,0,1,250,689) translate(75.025 14.4)"/><path d="M352.18 552.18h-64.36v-64.36h64.36zm-61.02-3.34h57.68v-57.68h-57.68z" stroke="#fff" stroke-opacity="0" fill="#d86613"/><path d="M297.02 480h3.33v9.48h-3.33V480zM307.47 480h3.33v9.48h-3.33V480zM317.93 480h3.34v9.48h-3.34V480zM328.4 480h3.33v9.48h-3.33V480zM338.87 480h3.33v9.48h-3.33V480zM297.02 550.52h3.33V560h-3.33v-9.48zM307.47 550.52h3.33V560h-3.33v-9.48zM317.93 550.52h3.34V560h-3.34v-9.48zM328.4 550.52h3.33V560h-3.33v-9.48zM338.87 550.52h3.33V560h-3.33v-9.48zM350.52 497.42H360v3.33h-9.48v-3.33zM350.52 507.87H360v3.33h-9.48v-3.33zM350.52 518.33H360v3.34h-9.48v-3.34zM350.52 528.8H360v3.33h-9.48v-3.33zM350.52 539.25H360v3.33h-9.48v-3.33zM280 497.42h9.48v3.33H280v-3.33zM280 507.87h9.48v3.33H280v-3.33zM280 518.33h9.48v3.34H280v-3.34zM280 528.8h9.48v3.33H280v-3.33zM280 539.25h9.48v3.33H280v-3.33z" stroke="#fff" stroke-opacity="0" fill="#d86613"/><use xlink:href="#m" transform="matrix(1,0,0,1,250,569) translate(15.074999999999996 14.4)"/><use xlink:href="#n" transform="matrix(1,0,0,1,250,569) translate(46.02499999999999 14.4)"/><use xlink:href="#p" transform="matrix(1,0,0,1,250,569) translate(80.975 14.4)"/><path d="M352.18 792.18h-64.36v-64.36h64.36zm-61.02-3.34h57.68v-57.68h-57.68z" stroke="#fff" stroke-opacity="0" fill="#d86613"/><path d="M297.02 720h3.33v9.48h-3.33V720zM307.47 720h3.33v9.48h-3.33V720zM317.93 720h3.34v9.48h-3.34V720zM328.4 720h3.33v9.48h-3.33V720zM338.87 720h3.33v9.48h-3.33V720zM297.02 790.52h3.33V800h-3.33v-9.48zM307.47 790.52h3.33V800h-3.33v-9.48zM317.93 790.52h3.34V800h-3.34v-9.48zM328.4 790.52h3.33V800h-3.33v-9.48zM338.87 790.52h3.33V800h-3.33v-9.48zM350.52 737.42H360v3.33h-9.48v-3.33zM350.52 747.87H360v3.33h-9.48v-3.33zM350.52 758.33H360v3.34h-9.48v-3.34zM350.52 768.8H360v3.33h-9.48v-3.33zM350.52 779.25H360v3.33h-9.48v-3.33zM280 737.42h9.48v3.33H280v-3.33zM280 747.87h9.48v3.33H280v-3.33zM280 758.33h9.48v3.34H280v-3.34zM280 768.8h9.48v3.33H280v-3.33zM280 779.25h9.48v3.33H280v-3.33z" stroke="#fff" stroke-opacity="0" fill="#d86613"/><use xlink:href="#m" transform="matrix(1,0,0,1,250,809) translate(23.549999999999997 14.4)"/><use xlink:href="#n" transform="matrix(1,0,0,1,250,809) translate(54.5 14.4)"/><use xlink:href="#q" transform="matrix(1,0,0,1,250,809) translate(89.45 14.4)"/><path d="M361 520h59V390h-21.5" stroke="#000" stroke-width="2" fill="none"/><path d="M361.03 521H360v-2h1.03z"/><path d="M383.24 390l14.26-4.64v9.28z" stroke="#000" stroke-width="2"/><path d="M361 640h59V390h-21.5" stroke="#000" stroke-width="2" fill="none"/><path d="M361.03 641H360v-2h1.03z"/><path d="M383.24 390l14.26-4.64v9.28z" stroke="#000" stroke-width="2"/><path d="M361 760h59V390h-21.5" stroke="#000" stroke-width="2" fill="none"/><path d="M361.03 761H360v-2h1.03z"/><path d="M383.24 390l14.26-4.64v9.28z" stroke="#000" stroke-width="2"/><path d="M240 52.6h280v74.8H240z" fill="none"/><use xlink:href="#r" transform="matrix(1,0,0,1,245,57.6) translate(43.099999999999994 14.500000000000002)"/><use xlink:href="#s" transform="matrix(1,0,0,1,245,57.6) translate(144.95 14.500000000000002)"/><use xlink:href="#t" transform="matrix(1,0,0,1,245,57.6) translate(47.125 36.1)"/><use xlink:href="#u" transform="matrix(1,0,0,1,245,57.6) translate(133.975 36.1)"/><use xlink:href="#v" transform="matrix(1,0,0,1,245,57.6) translate(84.55 57.7)"/><path d="M619.66 523.17c-1.14.1-2.05.34-2.96.8l-39.44 19.43c-2.16 1.02-3.64 2.84-4.1 5.23l-9.77 43.76c-.47 2.04-.13 4.08 1 5.9.13.23.24.34.47.57l27.28 35c1.48 1.94 3.52 2.97 5.9 2.97h43.9c2.38 0 4.42-1.03 5.9-2.96l27.28-35c1.48-1.94 2.05-4.2 1.48-6.6l-9.77-43.65c-.45-2.4-1.93-4.2-4.1-5.23l-39.43-19.44c-1.25-.57-2.4-.9-3.64-.8z" stroke="#000" stroke-opacity="0" stroke-width="3.83" fill="#326ce5"/><path d="M619.64 520c-1.2.12-2.16.36-3.12.84l-41.64 20.52c-2.28 1.08-3.84 3-4.32 5.52l-10.32 46.2c-.48 2.16-.12 4.32 1.08 6.24.12.24.24.36.48.6l28.8 36.96c1.56 2.04 3.72 3.12 6.24 3.12h46.32c2.52 0 4.68-1.08 6.24-3.12l28.8-36.96c1.56-2.04 2.16-4.44 1.56-6.84l-10.32-46.2c-.48-2.52-2.04-4.44-4.32-5.52l-41.64-20.52c-1.32-.6-2.52-.96-3.84-.84zm0 3.24c1.32-.12 2.4.12 3.6.72l39.6 19.44c2.04 1.08 3.48 2.88 4.08 5.28l9.72 43.68c.48 2.4 0 4.56-1.44 6.48l-27.36 35.04c-1.44 1.92-3.48 3-5.88 3h-43.92c-2.4 0-4.44-1.08-5.88-3l-27.36-35.04c-.12-.12-.24-.36-.36-.6-1.2-1.8-1.56-3.72-1.08-5.88l9.72-43.68c.6-2.4 1.92-4.2 4.08-5.28l39.6-19.44c.96-.48 1.8-.72 2.88-.84z" stroke="#000" stroke-opacity="0" stroke-width="3.83" fill="#fff"/><path d="M612.14 622.48c0 1.16.23 2.08.7 2.7.47.65 1.16.97 2.06.97.72 0 1.3-.15 1.72-.45.43-.3.73-.67.87-1.12l1.45.42c-.6 1.6-1.94 2.42-4.05 2.42-1.47 0-2.58-.45-3.35-1.35-.77-.9-1.15-2.25-1.15-4.02 0-1.68.38-3 1.15-3.9.77-.9 1.87-1.33 3.3-1.33 2.9 0 4.36 1.8 4.36 5.42v.24zm5.36-1.3c-.08-1.1-.35-1.87-.8-2.36-.43-.5-1.06-.74-1.88-.74-.8 0-1.45.27-1.9.82-.48.56-.73 1.3-.76 2.27zM629.7 622.07c0 3.56-1.2 5.35-3.64 5.35-1.52 0-2.55-.6-3.08-1.8h-.04c.02.07.03.6.03 1.63v4h-1.64v-12.17c0-1.05-.03-1.74-.06-2.1h1.6l.02.3c0 .15 0 .38.02.7l.04.66h.03c.3-.62.67-1.08 1.16-1.37.48-.3 1.1-.45 1.9-.45 1.23 0 2.14.42 2.74 1.27.6.83.9 2.15.9 3.97zm-1.72.03c0-1.42-.2-2.44-.56-3.05-.38-.62-.97-.92-1.78-.92-.66 0-1.16.15-1.54.43-.37.28-.65.73-.84 1.33-.2.58-.3 1.38-.3 2.33 0 1.35.22 2.33.64 2.97.4.63 1.1.95 2.02.95.82 0 1.4-.3 1.8-.92.37-.62.56-1.66.56-3.13z" stroke="#000" stroke-opacity="0" fill="#fff"/><path d="M583.93 589.4h19.34v14h-19.34zM610.33 589.4h19.34v14h-19.34zM636.72 589.4h19.35v14h-19.35zM604.67 547.9h30.66v14h-30.66z" stroke="#000" stroke-opacity="0" stroke-width="3.77" fill="#fff"/><path d="M608.45 565.13l3.06 3.16-13.67 14.1-3.07-3.17z" stroke="#000" stroke-opacity="0" stroke-width="2.67" fill="#fff"/><path d="M592.34 585l3.46-13.55 9.65 9.87-6.56 1.84z" stroke="#000" stroke-opacity="0" stroke-width=".8" fill="#fff"/><path d="M628.66 565.15l-3.07 3.15 13.68 14.1 3.06-3.15z" fill="#fff"/><path d="M644.77 585.02l-3.46-13.55-9.64 9.87 6.55 1.84z" fill="#fff"/><path d="M621.6 566.33h-4.33l-.12 15.4 4.34.03z" stroke="#000" stroke-opacity="0" fill="#fff"/><path d="M619.24 587.6l6.92-12.07-13.6-.14 3.34 6.1z" fill="#fff"/><use xlink:href="#w" transform="matrix(1,0,0,1,530,649) translate(54.525 14.4)"/><path d="M562.16 580H461.58v-60H378.5" stroke="#000" stroke-width="2" fill="none"/><path d="M562.94 581h-.8v-2h1.25z"/><path d="M363.24 520l14.26-4.64v9.28z" stroke="#000" stroke-width="2"/><path d="M562.16 580H461.58v60H378.5" stroke="#000" stroke-width="2" fill="none"/><path d="M562.94 581h-.8v-2h1.25z"/><path d="M363.24 640l14.26-4.64v9.28z" stroke="#000" stroke-width="2"/><path d="M562.16 580H461.58v180H378.5" stroke="#000" stroke-width="2" fill="none"/><path d="M562.94 581h-.8v-2h1.25z"/><path d="M363.24 760l14.26-4.64v9.28z" stroke="#000" stroke-width="2"/><path d="M922.8 540h-97.62c-2.9 0-5.18 2.28-5.18 5.16V624c0 3 2.27 5.28 5.18 5.28h25.16c1.94 6.36 8.1 10.68 15.33 10.68 8.64 0 15.87-7.2 15.87-15.96 0-8.64-7.23-15.84-15.87-15.84-7.23 0-13.28 4.32-15.33 10.68h-19.97v-56.28h87.13v56.28h-16.4c-2.28-17.4-17.6-30.96-35.54-30.96-6.04 0-12.1 1.8-17.38 4.32l4.97 9.24c3.45-2.04 8.1-3.12 12.1-3.12 13.92 0 25.7 11.52 25.7 25.68s-11.57 25.68-25.7 25.68c-4.33 0-8.32-1.2-12.1-3.24l-4.97 9.24c5.3 2.88 11.34 4.32 17.38 4.32 17.93 0 33.26-13.56 35.53-30.84h21.7c2.8 0 5.17-2.4 5.17-5.28v-78.72c0-2.52-2.27-5.16-5.18-5.16z" stroke="#000" stroke-opacity="0" fill="#3276bc"/><g><use xlink:href="#x" transform="matrix(1,0,0,1,790,669) translate(44.55 14.4)"/><use xlink:href="#y" transform="matrix(1,0,0,1,790,669) translate(91.45 14.4)"/></g><path d="M819 598.8H697.37" stroke="#000" stroke-width="2" fill="none"/><path d="M820 599.8h-1.03v-2H820z"/><path d="M682.1 598.8l14.27-4.64v9.28z" stroke="#000" stroke-width="2"/><path d="M1512.25 680h-64.5c-4.23 0-7.67 3.72-7.67 8.28v103.44c0 4.56 3.44 8.28 7.67 8.28h64.5c4.23 0 7.67-3.72 7.67-8.28V688.28c0-4.56-3.44-8.28-7.67-8.28zm-44.23 5.4h24.2c2.07 0 3.5.24 3.5 1.68 0 1.68-1.43 1.68-3.5 1.68H1468c-2 0-3.43 0-3.43-1.68 0-1.44 1.67-1.68 3.42-1.68zm19.1 105.84h-13.75c-1.35 0-2.55-1.2-2.55-2.88 0-1.44 1.2-2.88 2.55-2.88h13.74c1.44 0 2.56 1.44 2.56 2.88s-1.12 2.88-2.55 2.88zm24.26-11.4h-62.76v-85.56h62.76v85.56z" stroke="#000" stroke-opacity="0" fill="#2a3282"/><g><use xlink:href="#z" transform="matrix(1,0,0,1,1410.0825206301574,809) translate(3.174999999999983 14.4)"/><use xlink:href="#A" transform="matrix(1,0,0,1,1410.0825206301574,809) translate(94.975 14.4)"/><use xlink:href="#B" transform="matrix(1,0,0,1,1410.0825206301574,809) translate(39.074999999999996 36)"/></g><path d="M1022 500h208.54v241.56h191.04" stroke="#000" stroke-width="2" fill="none"/><path d="M1022.03 501H1021v-2h1.03z"/><path d="M1436.85 741.56l-14.27 4.64v-9.28z" stroke="#000" stroke-width="2"/><defs><path fill="#232f3e" d="M30 0v-248h33v221h125V0H30" id="C"/><path fill="#232f3e" d="M24-231v-30h32v30H24zM24 0v-190h32V0H24" id="D"/><path fill="#232f3e" d="M117-194c89-4 53 116 60 194h-32v-121c0-31-8-49-39-48C34-167 62-67 57 0H25l-1-190h30c1 10-1 24 2 32 11-22 29-35 61-36" id="E"/><path fill="#232f3e" d="M100-194c62-1 85 37 85 99 1 63-27 99-86 99S16-35 15-95c0-66 28-99 85-99zM99-20c44 1 53-31 53-75 0-43-8-75-51-75s-53 32-53 75 10 74 51 75" id="F"/><path fill="#232f3e" d="M85-194c31 0 48 13 60 33l-1-100h32l1 261h-30c-2-10 0-23-3-31C134-8 116 4 85 4 32 4 16-35 15-94c0-66 23-100 70-100zm9 24c-40 0-46 34-46 75 0 40 6 74 45 74 42 0 51-32 51-76 0-42-9-74-50-73" id="G"/><path fill="#232f3e" d="M100-194c63 0 86 42 84 106H49c0 40 14 67 53 68 26 1 43-12 49-29l28 8c-11 28-37 45-77 45C44 4 14-33 15-96c1-61 26-98 85-98zm52 81c6-60-76-77-97-28-3 7-6 17-6 28h103" id="H"/><g id="a"><use transform="matrix(0.05,0,0,0.05,0,0)" xlink:href="#C"/><use transform="matrix(0.05,0,0,0.05,10,0)" xlink:href="#D"/><use transform="matrix(0.05,0,0,0.05,13.949999999999998,0)" xlink:href="#E"/><use transform="matrix(0.05,0,0,0.05,23.95,0)" xlink:href="#F"/><use transform="matrix(0.05,0,0,0.05,33.95,0)" xlink:href="#G"/><use transform="matrix(0.05,0,0,0.05,43.95,0)" xlink:href="#H"/></g><path fill="#232f3e" d="M185-189c-5-48-123-54-124 2 14 75 158 14 163 119 3 78-121 87-175 55-17-10-28-26-33-46l33-7c5 56 141 63 141-1 0-78-155-14-162-118-5-82 145-84 179-34 5 7 8 16 11 25" id="I"/><path fill="#232f3e" d="M114-163C36-179 61-72 57 0H25l-1-190h30c1 12-1 29 2 39 6-27 23-49 58-41v29" id="J"/><path fill="#232f3e" d="M108 0H70L1-190h34L89-25l56-165h34" id="K"/><g id="b"><use transform="matrix(0.05,0,0,0.05,0,0)" xlink:href="#I"/><use transform="matrix(0.05,0,0,0.05,12,0)" xlink:href="#H"/><use transform="matrix(0.05,0,0,0.05,22,0)" xlink:href="#J"/><use transform="matrix(0.05,0,0,0.05,27.950000000000003,0)" xlink:href="#K"/><use transform="matrix(0.05,0,0,0.05,36.95,0)" xlink:href="#H"/><use transform="matrix(0.05,0,0,0.05,46.95,0)" xlink:href="#J"/></g><path fill="#232f3e" d="M212-179c-10-28-35-45-73-45-59 0-87 40-87 99 0 60 29 101 89 101 43 0 62-24 78-52l27 14C228-24 195 4 139 4 59 4 22-46 18-125c-6-104 99-153 187-111 19 9 31 26 39 46" id="L"/><path fill="#232f3e" d="M24 0v-261h32V0H24" id="M"/><path fill="#232f3e" d="M84 4C-5 8 30-112 23-190h32v120c0 31 7 50 39 49 72-2 45-101 50-169h31l1 190h-30c-1-10 1-25-2-33-11 22-28 36-60 37" id="N"/><g id="c"><use transform="matrix(0.05,0,0,0.05,0,0)" xlink:href="#L"/><use transform="matrix(0.05,0,0,0.05,12.950000000000001,0)" xlink:href="#M"/><use transform="matrix(0.05,0,0,0.05,16.900000000000002,0)" xlink:href="#F"/><use transform="matrix(0.05,0,0,0.05,26.900000000000002,0)" xlink:href="#N"/><use transform="matrix(0.05,0,0,0.05,36.900000000000006,0)" xlink:href="#G"/></g><path d="M30 0v-248h187v28H63v79h144v27H63v87h162V0H30" id="O"/><path d="M145-31C134-9 116 4 85 4 32 4 16-35 15-94c0-59 17-99 70-100 32-1 48 14 60 33 0-11-1-24 2-32h30l-1 268h-32zM93-21c41 0 51-33 51-76s-8-73-50-73c-40 0-46 35-46 75s5 74 45 74" id="P"/><path d="M84 4C-5 8 30-112 23-190h32v120c0 31 7 50 39 49 72-2 45-101 50-169h31l1 190h-30c-1-10 1-25-2-33-11 22-28 36-60 37" id="Q"/><path d="M24-231v-30h32v30H24zM24 0v-190h32V0H24" id="R"/><path d="M115-194c55 1 70 41 70 98S169 2 115 4C84 4 66-9 55-30l1 105H24l-1-265h31l2 30c10-21 28-34 59-34zm-8 174c40 0 45-34 45-75s-6-73-45-74c-42 0-51 32-51 76 0 43 10 73 51 73" id="S"/><path d="M100-194c62-1 85 37 85 99 1 63-27 99-86 99S16-35 15-95c0-66 28-99 85-99zM99-20c44 1 53-31 53-75 0-43-8-75-51-75s-53 32-53 75 10 74 51 75" id="T"/><g id="d"><use transform="matrix(0.05,0,0,0.05,0,0)" xlink:href="#O"/><use transform="matrix(0.05,0,0,0.05,12,0)" xlink:href="#P"/><use transform="matrix(0.05,0,0,0.05,22,0)" xlink:href="#Q"/><use transform="matrix(0.05,0,0,0.05,32,0)" xlink:href="#R"/><use transform="matrix(0.05,0,0,0.05,35.95,0)" xlink:href="#S"/><use transform="matrix(0.05,0,0,0.05,45.95,0)" xlink:href="#T"/></g><path d="M232-93c-1 65-40 97-104 97C67 4 28-28 28-90v-158h33c8 89-33 224 67 224 102 0 64-133 71-224h33v155" id="U"/><path d="M135-143c-3-34-86-38-87 0 15 53 115 12 119 90S17 21 10-45l28-5c4 36 97 45 98 0-10-56-113-15-118-90-4-57 82-63 122-42 12 7 21 19 24 35" id="V"/><path d="M141-36C126-15 110 5 73 4 37 3 15-17 15-53c-1-64 63-63 125-63 3-35-9-54-41-54-24 1-41 7-42 31l-33-3c5-37 33-52 76-52 45 0 72 20 72 64v82c-1 20 7 32 28 27v20c-31 9-61-2-59-35zM48-53c0 20 12 33 32 33 41-3 63-29 60-74-43 2-92-5-92 41" id="W"/><path d="M114-163C36-179 61-72 57 0H25l-1-190h30c1 12-1 29 2 39 6-27 23-49 58-41v29" id="X"/><g id="e"><use transform="matrix(0.05,0,0,0.05,0,0)" xlink:href="#U"/><use transform="matrix(0.05,0,0,0.05,12.950000000000001,0)" xlink:href="#V"/><use transform="matrix(0.05,0,0,0.05,21.950000000000003,0)" xlink:href="#Q"/><use transform="matrix(0.05,0,0,0.05,31.950000000000003,0)" xlink:href="#W"/><use transform="matrix(0.05,0,0,0.05,41.95,0)" xlink:href="#X"/><use transform="matrix(0.05,0,0,0.05,47.900000000000006,0)" xlink:href="#R"/><use transform="matrix(0.05,0,0,0.05,51.85,0)" xlink:href="#T"/></g><path d="M205 0l-28-72H64L36 0H1l101-248h38L239 0h-34zm-38-99l-47-123c-12 45-31 82-46 123h93" id="Y"/><path d="M96-169c-40 0-48 33-48 73s9 75 48 75c24 0 41-14 43-38l32 2c-6 37-31 61-74 61-59 0-76-41-82-99-10-93 101-131 147-64 4 7 5 14 7 22l-32 3c-4-21-16-35-41-35" id="Z"/><path d="M100-194c63 0 86 42 84 106H49c0 40 14 67 53 68 26 1 43-12 49-29l28 8c-11 28-37 45-77 45C44 4 14-33 15-96c1-61 26-98 85-98zm52 81c6-60-76-77-97-28-3 7-6 17-6 28h103" id="aa"/><g id="f"><use transform="matrix(0.05,0,0,0.05,0,0)" xlink:href="#Y"/><use transform="matrix(0.05,0,0,0.05,12,0)" xlink:href="#Z"/><use transform="matrix(0.05,0,0,0.05,21,0)" xlink:href="#Z"/><use transform="matrix(0.05,0,0,0.05,30,0)" xlink:href="#aa"/><use transform="matrix(0.05,0,0,0.05,40,0)" xlink:href="#V"/><use transform="matrix(0.05,0,0,0.05,49,0)" xlink:href="#T"/></g><path d="M33 0v-248h34V0H33" id="ab"/><path d="M117-194c89-4 53 116 60 194h-32v-121c0-31-8-49-39-48C34-167 62-67 57 0H25l-1-190h30c1 10-1 24 2 32 11-22 29-35 61-36" id="ac"/><path d="M59-47c-2 24 18 29 38 22v24C64 9 27 4 27-40v-127H5v-23h24l9-43h21v43h35v23H59v120" id="ad"/><g id="g"><use transform="matrix(0.05,0,0,0.05,0,0)" xlink:href="#ab"/><use transform="matrix(0.05,0,0,0.05,5,0)" xlink:href="#ac"/><use transform="matrix(0.05,0,0,0.05,15,0)" xlink:href="#ad"/><use transform="matrix(0.05,0,0,0.05,20,0)" xlink:href="#aa"/><use transform="matrix(0.05,0,0,0.05,30,0)" xlink:href="#X"/><use transform="matrix(0.05,0,0,0.05,35.95,0)" xlink:href="#ac"/><use transform="matrix(0.05,0,0,0.05,45.95,0)" xlink:href="#aa"/><use transform="matrix(0.05,0,0,0.05,55.95,0)" xlink:href="#ad"/></g><path fill="#147eba" d="M212-179c-10-28-35-45-73-45-59 0-87 40-87 99 0 60 29 101 89 101 43 0 62-24 78-52l27 14C228-24 195 4 139 4 59 4 22-46 18-125c-6-104 99-153 187-111 19 9 31 26 39 46" id="ae"/><path fill="#147eba" d="M100-194c62-1 85 37 85 99 1 63-27 99-86 99S16-35 15-95c0-66 28-99 85-99zM99-20c44 1 53-31 53-75 0-43-8-75-51-75s-53 32-53 75 10 74 51 75" id="af"/><path fill="#147eba" d="M117-194c89-4 53 116 60 194h-32v-121c0-31-8-49-39-48C34-167 62-67 57 0H25l-1-190h30c1 10-1 24 2 32 11-22 29-35 61-36" id="ag"/><path fill="#147eba" d="M59-47c-2 24 18 29 38 22v24C64 9 27 4 27-40v-127H5v-23h24l9-43h21v43h35v23H59v120" id="ah"/><path fill="#147eba" d="M100-194c63 0 86 42 84 106H49c0 40 14 67 53 68 26 1 43-12 49-29l28 8c-11 28-37 45-77 45C44 4 14-33 15-96c1-61 26-98 85-98zm52 81c6-60-76-77-97-28-3 7-6 17-6 28h103" id="ai"/><path fill="#147eba" d="M85-194c31 0 48 13 60 33l-1-100h32l1 261h-30c-2-10 0-23-3-31C134-8 116 4 85 4 32 4 16-35 15-94c0-66 23-100 70-100zm9 24c-40 0-46 34-46 75 0 40 6 74 45 74 42 0 51-32 51-76 0-42-9-74-50-73" id="aj"/><path fill="#147eba" d="M114-163C36-179 61-72 57 0H25l-1-190h30c1 12-1 29 2 39 6-27 23-49 58-41v29" id="ak"/><path fill="#147eba" d="M135-143c-3-34-86-38-87 0 15 53 115 12 119 90S17 21 10-45l28-5c4 36 97 45 98 0-10-56-113-15-118-90-4-57 82-63 122-42 12 7 21 19 24 35" id="al"/><g id="h"><use transform="matrix(0.05,0,0,0.05,0,0)" xlink:href="#ae"/><use transform="matrix(0.05,0,0,0.05,12.950000000000001,0)" xlink:href="#af"/><use transform="matrix(0.05,0,0,0.05,22.950000000000003,0)" xlink:href="#ag"/><use transform="matrix(0.05,0,0,0.05,32.95,0)" xlink:href="#ah"/><use transform="matrix(0.05,0,0,0.05,37.95,0)" xlink:href="#ai"/><use transform="matrix(0.05,0,0,0.05,47.95,0)" xlink:href="#ag"/><use transform="matrix(0.05,0,0,0.05,57.95,0)" xlink:href="#ai"/><use transform="matrix(0.05,0,0,0.05,67.95,0)" xlink:href="#aj"/><use transform="matrix(0.05,0,0,0.05,77.95,0)" xlink:href="#af"/><use transform="matrix(0.05,0,0,0.05,87.95,0)" xlink:href="#ak"/><use transform="matrix(0.05,0,0,0.05,93.9,0)" xlink:href="#ai"/><use transform="matrix(0.05,0,0,0.05,103.9,0)" xlink:href="#al"/></g><path fill="#147eba" d="M30-248c118-7 216 8 213 122C240-48 200 0 122 0H30v-248zM63-27c89 8 146-16 146-99s-60-101-146-95v194" id="am"/><path fill="#147eba" d="M96-169c-40 0-48 33-48 73s9 75 48 75c24 0 41-14 43-38l32 2c-6 37-31 61-74 61-59 0-76-41-82-99-10-93 101-131 147-64 4 7 5 14 7 22l-32 3c-4-21-16-35-41-35" id="an"/><path fill="#147eba" d="M143 0L79-87 56-68V0H24v-261h32v163l83-92h37l-77 82L181 0h-38" id="ao"/><g id="i"><use transform="matrix(0.05,0,0,0.05,0,0)" xlink:href="#am"/><use transform="matrix(0.05,0,0,0.05,12.950000000000001,0)" xlink:href="#af"/><use transform="matrix(0.05,0,0,0.05,22.950000000000003,0)" xlink:href="#an"/><use transform="matrix(0.05,0,0,0.05,31.950000000000003,0)" xlink:href="#ao"/><use transform="matrix(0.05,0,0,0.05,40.95,0)" xlink:href="#ai"/><use transform="matrix(0.05,0,0,0.05,50.95,0)" xlink:href="#ak"/></g><path d="M240 0l2-218c-23 76-54 145-80 218h-23L58-218 59 0H30v-248h44l77 211c21-75 51-140 76-211h43V0h-30" id="ap"/><path d="M30-248c118-7 216 8 213 122C240-48 200 0 122 0H30v-248zM63-27c89 8 146-16 146-99s-60-101-146-95v194" id="aq"/><path d="M115-194c53 0 69 39 70 98 0 66-23 100-70 100C84 3 66-7 56-30L54 0H23l1-261h32v101c10-23 28-34 59-34zm-8 174c40 0 45-34 45-75 0-40-5-75-45-74-42 0-51 32-51 76 0 43 10 73 51 73" id="ar"/><g id="k"><use transform="matrix(0.05,0,0,0.05,0,0)" xlink:href="#ap"/><use transform="matrix(0.05,0,0,0.05,14.950000000000001,0)" xlink:href="#W"/><use transform="matrix(0.05,0,0,0.05,24.950000000000003,0)" xlink:href="#X"/><use transform="matrix(0.05,0,0,0.05,30.900000000000002,0)" xlink:href="#R"/><use transform="matrix(0.05,0,0,0.05,34.85,0)" xlink:href="#W"/><use transform="matrix(0.05,0,0,0.05,44.85,0)" xlink:href="#aq"/><use transform="matrix(0.05,0,0,0.05,57.800000000000004,0)" xlink:href="#ar"/></g><filter id="j" filterUnits="objectBoundingBox" x="-.07" y="-.05" width="1.14" height="1.14"><feOffset result="offOut" in="SourceAlpha" dy="2"/><feGaussianBlur result="blurOut" in="offOut" stdDeviation="3.5"/><feColorMatrix result="colorOut" in="blurOut" values="0 0 0 0 0 0 0 0 0 0 0 0 0 0 0 0 0 0 0.5019607843137255 0"/><feBlend in="SourceGraphic" in2="colorOut"/></filter><path d="M30-248c87 1 191-15 191 75 0 78-77 80-158 76V0H30v-248zm33 125c57 0 124 11 124-50 0-59-68-47-124-48v98" id="as"/><path d="M137 0h-34L2-248h35l83 218 83-218h36" id="at"/><path d="M24 0v-261h32V0H24" id="au"/><path d="M210-169c-67 3-38 105-44 169h-31v-121c0-29-5-50-35-48C34-165 62-65 56 0H25l-1-190h30c1 10-1 24 2 32 10-44 99-50 107 0 11-21 27-35 58-36 85-2 47 119 55 194h-31v-121c0-29-5-49-35-48" id="av"/><g id="l"><use transform="matrix(0.05,0,0,0.05,0,0)" xlink:href="#as"/><use transform="matrix(0.05,0,0,0.05,12,0)" xlink:href="#aa"/><use transform="matrix(0.05,0,0,0.05,22,0)" xlink:href="#X"/><use transform="matrix(0.05,0,0,0.05,27.950000000000003,0)" xlink:href="#V"/><use transform="matrix(0.05,0,0,0.05,36.95,0)" xlink:href="#R"/><use transform="matrix(0.05,0,0,0.05,40.900000000000006,0)" xlink:href="#V"/><use transform="matrix(0.05,0,0,0.05,49.900000000000006,0)" xlink:href="#ad"/><use transform="matrix(0.05,0,0,0.05,54.900000000000006,0)" xlink:href="#aa"/><use transform="matrix(0.05,0,0,0.05,64.9,0)" xlink:href="#ac"/><use transform="matrix(0.05,0,0,0.05,74.9,0)" xlink:href="#ad"/><use transform="matrix(0.05,0,0,0.05,79.9,0)" xlink:href="#at"/><use transform="matrix(0.05,0,0,0.05,90.9,0)" xlink:href="#T"/><use transform="matrix(0.05,0,0,0.05,100.9,0)" xlink:href="#au"/><use transform="matrix(0.05,0,0,0.05,104.85000000000001,0)" xlink:href="#Q"/><use transform="matrix(0.05,0,0,0.05,114.85000000000001,0)" xlink:href="#av"/><use transform="matrix(0.05,0,0,0.05,129.8,0)" xlink:href="#aa"/></g><g id="m"><use transform="matrix(0.05,0,0,0.05,0,0)" xlink:href="#Y"/><use transform="matrix(0.05,0,0,0.05,12,0)" xlink:href="#S"/><use transform="matrix(0.05,0,0,0.05,22,0)" xlink:href="#R"/></g><g id="n"><use transform="matrix(0.05,0,0,0.05,0,0)" xlink:href="#X"/><use transform="matrix(0.05,0,0,0.05,5.95,0)" xlink:href="#aa"/><use transform="matrix(0.05,0,0,0.05,15.949999999999998,0)" xlink:href="#V"/><use transform="matrix(0.05,0,0,0.05,24.95,0)" xlink:href="#ad"/></g><path d="M212-179c-10-28-35-45-73-45-59 0-87 40-87 99 0 60 29 101 89 101 43 0 62-24 78-52l27 14C228-24 195 4 139 4 59 4 22-46 18-125c-6-104 99-153 187-111 19 9 31 26 39 46" id="aw"/><g id="o"><use transform="matrix(0.05,0,0,0.05,0,0)" xlink:href="#aw"/><use transform="matrix(0.05,0,0,0.05,12.950000000000001,0)" xlink:href="#au"/><use transform="matrix(0.05,0,0,0.05,16.900000000000002,0)" xlink:href="#R"/><use transform="matrix(0.05,0,0,0.05,20.85,0)" xlink:href="#aa"/><use transform="matrix(0.05,0,0,0.05,30.85,0)" xlink:href="#ac"/><use transform="matrix(0.05,0,0,0.05,40.85,0)" xlink:href="#ad"/><use transform="matrix(0.05,0,0,0.05,45.85,0)" xlink:href="#aa"/></g><path d="M30 0v-248h33v221h125V0H30" id="ax"/><path d="M177-190C167-65 218 103 67 71c-23-6-38-20-44-43l32-5c15 47 100 32 89-28v-30C133-14 115 1 83 1 29 1 15-40 15-95c0-56 16-97 71-98 29-1 48 16 59 35 1-10 0-23 2-32h30zM94-22c36 0 50-32 50-73 0-42-14-75-50-75-39 0-46 34-46 75s6 73 46 73" id="ay"/><g id="p"><use transform="matrix(0.05,0,0,0.05,0,0)" xlink:href="#ax"/><use transform="matrix(0.05,0,0,0.05,10,0)" xlink:href="#T"/><use transform="matrix(0.05,0,0,0.05,20,0)" xlink:href="#ay"/><use transform="matrix(0.05,0,0,0.05,30,0)" xlink:href="#R"/><use transform="matrix(0.05,0,0,0.05,33.95,0)" xlink:href="#ac"/></g><path d="M85-194c31 0 48 13 60 33l-1-100h32l1 261h-30c-2-10 0-23-3-31C134-8 116 4 85 4 32 4 16-35 15-94c0-66 23-100 70-100zm9 24c-40 0-46 34-46 75 0 40 6 74 45 74 42 0 51-32 51-76 0-42-9-74-50-73" id="az"/><path d="M101-234c-31-9-42 10-38 44h38v23H63V0H32v-167H5v-23h27c-7-52 17-82 69-68v24" id="aA"/><g id="q"><use transform="matrix(0.05,0,0,0.05,0,0)" xlink:href="#as"/><use transform="matrix(0.05,0,0,0.05,12,0)" xlink:href="#az"/><use transform="matrix(0.05,0,0,0.05,22,0)" xlink:href="#aA"/></g><g id="r"><use transform="matrix(0.05,0,0,0.05,0,0)" xlink:href="#Y"/><use transform="matrix(0.05,0,0,0.05,12,0)" xlink:href="#X"/><use transform="matrix(0.05,0,0,0.05,17.95,0)" xlink:href="#P"/><use transform="matrix(0.05,0,0,0.05,27.950000000000003,0)" xlink:href="#Q"/><use transform="matrix(0.05,0,0,0.05,37.95,0)" xlink:href="#R"/><use transform="matrix(0.05,0,0,0.05,41.900000000000006,0)" xlink:href="#ad"/><use transform="matrix(0.05,0,0,0.05,46.900000000000006,0)" xlink:href="#aa"/><use transform="matrix(0.05,0,0,0.05,56.900000000000006,0)" xlink:href="#Z"/><use transform="matrix(0.05,0,0,0.05,65.9,0)" xlink:href="#ad"/><use transform="matrix(0.05,0,0,0.05,70.9,0)" xlink:href="#Q"/><use transform="matrix(0.05,0,0,0.05,80.9,0)" xlink:href="#X"/><use transform="matrix(0.05,0,0,0.05,86.85000000000001,0)" xlink:href="#W"/></g><g id="s"><use transform="matrix(0.05,0,0,0.05,0,0)" xlink:href="#as"/><use transform="matrix(0.05,0,0,0.05,12,0)" xlink:href="#X"/><use transform="matrix(0.05,0,0,0.05,17.95,0)" xlink:href="#T"/><use transform="matrix(0.05,0,0,0.05,27.950000000000003,0)" xlink:href="#S"/><use transform="matrix(0.05,0,0,0.05,37.95,0)" xlink:href="#Q"/><use transform="matrix(0.05,0,0,0.05,47.95,0)" xlink:href="#aa"/><use transform="matrix(0.05,0,0,0.05,57.95,0)" xlink:href="#V"/><use transform="matrix(0.05,0,0,0.05,66.95,0)" xlink:href="#ad"/><use transform="matrix(0.05,0,0,0.05,71.95,0)" xlink:href="#W"/></g><g id="t"><use transform="matrix(0.05,0,0,0.05,0,0)" xlink:href="#Y"/><use transform="matrix(0.05,0,0,0.05,12,0)" xlink:href="#S"/><use transform="matrix(0.05,0,0,0.05,22,0)" xlink:href="#au"/><use transform="matrix(0.05,0,0,0.05,25.950000000000003,0)" xlink:href="#R"/><use transform="matrix(0.05,0,0,0.05,29.899999999999995,0)" xlink:href="#Z"/><use transform="matrix(0.05,0,0,0.05,38.9,0)" xlink:href="#W"/><use transform="matrix(0.05,0,0,0.05,48.9,0)" xlink:href="#Z"/><use transform="matrix(0.05,0,0,0.05,57.900000000000006,0)" xlink:href="#R"/><use transform="matrix(0.05,0,0,0.05,61.85,0)" xlink:href="#T"/><use transform="matrix(0.05,0,0,0.05,71.85,0)" xlink:href="#ac"/></g><path d="M100-194c62-1 85 37 85 99 1 63-27 99-86 99S16-35 15-95c0-66 28-99 85-99zM99-20c44 1 53-31 53-75 0-43-8-75-51-75s-53 32-53 75 10 74 51 75zM76-211c8-23 27-35 38-54h36v5l-58 49H76" id="aB"/><g id="u"><use transform="matrix(0.05,0,0,0.05,0,0)" xlink:href="#ay"/><use transform="matrix(0.05,0,0,0.05,10,0)" xlink:href="#aa"/><use transform="matrix(0.05,0,0,0.05,20,0)" xlink:href="#ac"/><use transform="matrix(0.05,0,0,0.05,30,0)" xlink:href="#aa"/><use transform="matrix(0.05,0,0,0.05,40,0)" xlink:href="#X"/><use transform="matrix(0.05,0,0,0.05,45.95,0)" xlink:href="#W"/><use transform="matrix(0.05,0,0,0.05,55.95,0)" xlink:href="#Z"/><use transform="matrix(0.05,0,0,0.05,64.95,0)" xlink:href="#R"/><use transform="matrix(0.05,0,0,0.05,68.9,0)" xlink:href="#aB"/><use transform="matrix(0.05,0,0,0.05,78.9,0)" xlink:href="#ac"/></g><g id="v"><use transform="matrix(0.05,0,0,0.05,0,0)" xlink:href="#aq"/><use transform="matrix(0.05,0,0,0.05,12.950000000000001,0)" xlink:href="#T"/><use transform="matrix(0.05,0,0,0.05,22.950000000000003,0)" xlink:href="#Z"/><use transform="matrix(0.05,0,0,0.05,31.950000000000003,0)" xlink:href="#Q"/><use transform="matrix(0.05,0,0,0.05,41.95,0)" xlink:href="#av"/><use transform="matrix(0.05,0,0,0.05,56.900000000000006,0)" xlink:href="#aa"/><use transform="matrix(0.05,0,0,0.05,66.9,0)" xlink:href="#ac"/><use transform="matrix(0.05,0,0,0.05,76.9,0)" xlink:href="#ad"/><use transform="matrix(0.05,0,0,0.05,81.9,0)" xlink:href="#T"/><use transform="matrix(0.05,0,0,0.05,91.9,0)" xlink:href="#V"/></g><g id="w"><use transform="matrix(0.05,0,0,0.05,0,0)" xlink:href="#O"/><use transform="matrix(0.05,0,0,0.05,12,0)" xlink:href="#ac"/><use transform="matrix(0.05,0,0,0.05,22,0)" xlink:href="#az"/><use transform="matrix(0.05,0,0,0.05,32,0)" xlink:href="#S"/><use transform="matrix(0.05,0,0,0.05,42,0)" xlink:href="#T"/><use transform="matrix(0.05,0,0,0.05,52,0)" xlink:href="#R"/><use transform="matrix(0.05,0,0,0.05,55.95,0)" xlink:href="#ac"/><use transform="matrix(0.05,0,0,0.05,65.95,0)" xlink:href="#ad"/></g><path d="M63-220v92h138v28H63V0H30v-248h175v28H63" id="aC"/><g id="x"><use transform="matrix(0.05,0,0,0.05,0,0)" xlink:href="#aC"/><use transform="matrix(0.05,0,0,0.05,10.950000000000001,0)" xlink:href="#X"/><use transform="matrix(0.05,0,0,0.05,16.900000000000002,0)" xlink:href="#T"/><use transform="matrix(0.05,0,0,0.05,26.900000000000002,0)" xlink:href="#ac"/><use transform="matrix(0.05,0,0,0.05,36.900000000000006,0)" xlink:href="#ad"/></g><g id="y"><use transform="matrix(0.05,0,0,0.05,0,0)" xlink:href="#O"/><use transform="matrix(0.05,0,0,0.05,12,0)" xlink:href="#ac"/><use transform="matrix(0.05,0,0,0.05,22,0)" xlink:href="#az"/></g><path d="M108 0H70L1-190h34L89-25l56-165h34" id="aD"/><g id="z"><use transform="matrix(0.05,0,0,0.05,0,0)" xlink:href="#aq"/><use transform="matrix(0.05,0,0,0.05,12.950000000000001,0)" xlink:href="#R"/><use transform="matrix(0.05,0,0,0.05,16.900000000000002,0)" xlink:href="#V"/><use transform="matrix(0.05,0,0,0.05,25.900000000000002,0)" xlink:href="#S"/><use transform="matrix(0.05,0,0,0.05,35.900000000000006,0)" xlink:href="#T"/><use transform="matrix(0.05,0,0,0.05,45.900000000000006,0)" xlink:href="#V"/><use transform="matrix(0.05,0,0,0.05,54.900000000000006,0)" xlink:href="#R"/><use transform="matrix(0.05,0,0,0.05,58.85,0)" xlink:href="#ad"/><use transform="matrix(0.05,0,0,0.05,63.85,0)" xlink:href="#R"/><use transform="matrix(0.05,0,0,0.05,67.80000000000001,0)" xlink:href="#aD"/><use transform="matrix(0.05,0,0,0.05,76.80000000000001,0)" xlink:href="#T"/></g><g id="A"><use transform="matrix(0.05,0,0,0.05,0,0)" xlink:href="#ap"/><use transform="matrix(0.05,0,0,0.05,14.950000000000001,0)" xlink:href="#T"/><use transform="matrix(0.05,0,0,0.05,24.950000000000003,0)" xlink:href="#aD"/><use transform="matrix(0.05,0,0,0.05,33.95,0)" xlink:href="#R"/><use transform="matrix(0.05,0,0,0.05,37.900000000000006,0)" xlink:href="#au"/></g><g id="B"><use transform="matrix(0.05,0,0,0.05,0,0)" xlink:href="#U"/><use transform="matrix(0.05,0,0,0.05,12.950000000000001,0)" xlink:href="#V"/><use transform="matrix(0.05,0,0,0.05,21.950000000000003,0)" xlink:href="#Q"/><use transform="matrix(0.05,0,0,0.05,31.950000000000003,0)" xlink:href="#W"/><use transform="matrix(0.05,0,0,0.05,41.95,0)" xlink:href="#X"/><use transform="matrix(0.05,0,0,0.05,47.900000000000006,0)" xlink:href="#R"/><use transform="matrix(0.05,0,0,0.05,51.85,0)" xlink:href="#T"/></g></defs></g></svg>